# Blender v2.91.2 OBJ File: ''
# www.blender.org
mtllib base.mtl
o Cone
v 0.000000 -0.050000 -12.000000
v 0.000000 0.050000 -11.754675
v 10.392305 -0.050000 -6.000000
v 10.179848 0.050000 -5.877337
v 10.392304 -0.050000 6.000001
v 10.179847 0.050000 5.877338
v -0.000001 -0.050000 12.000000
v -0.000001 0.050000 11.754675
v -10.392305 -0.050000 5.999999
v -10.179848 0.050000 5.877337
v -10.392305 -0.050000 -5.999999
v -10.179848 0.050000 -5.877337
v 10.392305 0.050000 -6.000000
v 0.000000 0.050000 -12.000000
v 10.392304 0.050000 6.000001
v -0.000001 0.050000 12.000000
v -10.392305 0.050000 5.999999
v -10.392305 0.050000 -5.999999
v 10.392305 0.206829 -6.000000
v 0.000000 0.206829 -12.000000
v 10.392304 0.206829 6.000001
v -0.000001 0.206829 12.000000
v -10.392305 0.206829 5.999999
v -10.392305 0.206829 -5.999999
v 10.179848 0.206829 -5.877337
v 0.000000 0.206829 -11.754675
v 10.179847 0.206829 5.877338
v -0.000001 0.206829 11.754675
v -10.179848 0.206829 5.877337
v -10.179848 0.206829 -5.877337
vt 0.106691 0.000036
vt 0.112432 0.001924
vt 0.006003 0.330453
vt 0.000036 0.329471
vt 0.006095 0.668565
vt 0.000119 0.669495
vt 0.112743 0.998130
vt 0.106982 0.999964
vt 0.106688 0.000036
vt 0.112429 0.001924
vt 0.006003 0.330437
vt 0.000036 0.329455
vt 0.989973 0.251597
vt 0.989973 0.751504
vt 0.557041 1.001457
vt 0.124109 0.751504
vt 0.124109 0.251597
vt 0.557041 0.001643
vt 0.006091 0.668547
vt 0.000115 0.669477
vt 0.112741 0.998130
vt 0.106979 0.999964
vt 0.989973 0.751504
vt 0.557041 1.001457
vt 0.124109 0.751504
vt 0.124109 0.251597
vt 0.557041 0.001643
vt 0.989973 0.251597
vt 0.012033 0.667592
vt 0.118492 0.996257
vt 0.128990 0.010495
vt 0.024052 0.333237
vt 0.018174 0.332307
vt 0.123353 0.008675
vt 0.119296 0.004149
vt 0.012555 0.331343
vt 0.119293 0.004149
vt 0.012555 0.331327
vt 0.128989 0.010498
vt 0.024050 0.333221
vt 0.018173 0.332291
vt 0.123352 0.008678
vt 0.012029 0.667574
vt 0.018719 0.666650
vt 0.124162 0.989970
vt 0.018715 0.666633
vt 0.124161 0.989969
vt 0.118491 0.996257
vt 0.024158 0.665686
vt 0.024162 0.665704
vt 0.128989 0.988384
vt 0.128990 0.988384
vn 0.5000 0.0000 -0.8660
vn 1.0000 0.0000 0.0000
vn 0.5000 0.0000 0.8660
vn -0.5000 0.0000 0.8660
vn 0.0000 1.0000 -0.0000
vn -1.0000 0.0000 0.0000
vn -0.5000 0.0000 -0.8660
vn 0.0000 -1.0000 0.0000
usemtl base
s off
f 1/1/1 14/2/1 13/3/1 3/4/1
f 3/4/2 13/3/2 15/5/2 5/6/2
f 5/6/3 15/5/3 16/7/3 7/8/3
f 7/9/4 16/10/4 17/11/4 9/12/4
f 4/13/5 2/14/5 12/15/5 10/16/5 8/17/5 6/18/5
f 9/12/6 17/11/6 18/19/6 11/20/6
f 11/20/7 18/19/7 14/21/7 1/22/7
f 1/23/8 3/24/8 5/25/8 7/26/8 9/27/8 11/28/8
f 16/7/3 15/5/3 21/29/3 22/30/3
f 2/31/4 4/32/4 25/33/4 26/34/4
f 13/3/1 14/2/1 20/35/1 19/36/1
f 17/11/4 16/10/4 22/37/4 23/38/4
f 8/39/1 10/40/1 29/41/1 28/42/1
f 18/19/6 17/11/6 23/38/6 24/43/6
f 26/34/5 25/33/5 19/36/5 20/35/5
f 25/33/5 27/44/5 21/29/5 19/36/5
f 27/44/5 28/45/5 22/30/5 21/29/5
f 28/42/5 29/41/5 23/38/5 22/37/5
f 29/41/5 30/46/5 24/43/5 23/38/5
f 30/46/5 26/47/5 20/48/5 24/43/5
f 10/40/2 12/49/2 30/46/2 29/41/2
f 15/5/2 13/3/2 19/36/2 21/29/2
f 4/32/6 6/50/6 27/44/6 25/33/6
f 12/49/3 2/51/3 26/47/3 30/46/3
f 6/50/7 8/52/7 28/45/7 27/44/7
f 14/21/7 18/19/7 24/43/7 20/48/7
